<?xml version="1.0" standalone="no"?>
<!DOCTYPE svg PUBLIC "-//W3C//DTD SVG 20010904//EN"
 "http://www.w3.org/TR/2001/REC-SVG-20010904/DTD/svg10.dtd">
<svg version="1.0" xmlns="http://www.w3.org/2000/svg"
 width="56.000000pt" height="72.000000pt" viewBox="0 0 56.000000 72.000000"
 preserveAspectRatio="xMidYMid meet">

<g transform="translate(0.000000,72.000000) scale(0.100000,-0.100000)"
fill="#000000" stroke="none">
<path d="M136 704 c-42 -13 -47 -18 -41 -37 15 -50 17 -109 5 -132 -9 -17 -10
-31 -2 -54 10 -29 9 -31 -33 -51 -66 -32 -70 -41 -32 -77 17 -17 46 -35 62
-40 31 -10 42 -32 30 -61 -11 -26 -16 -94 -10 -127 3 -17 25 -53 49 -80 l44
-50 38 20 c22 11 49 30 61 42 12 13 25 23 28 23 3 0 16 11 29 25 13 13 26 22
29 18 4 -3 7 10 7 31 0 23 4 35 10 31 6 -4 26 7 46 24 19 17 43 31 53 31 10 0
25 8 35 19 22 24 10 55 -41 111 l-37 42 18 51 c10 29 29 74 42 101 13 28 24
55 24 62 0 15 -83 50 -177 75 -89 22 -169 23 -237 3z m197 -325 c31 -8 37 -14
37 -37 0 -15 4 -33 9 -41 11 -16 -3 -71 -21 -82 -7 -4 -18 -3 -25 3 -10 8 -30
7 -73 -2 -53 -11 -61 -11 -76 5 -16 15 -16 19 -2 43 27 47 4 98 -40 87 -29 -7
-20 12 12 25 30 12 134 12 179 -1z m-168 -59 c18 -8 17 -9 -7 -9 -15 -1 -30 4
-33 9 -7 12 12 12 40 0z m298 -52 c3 -8 -4 -13 -19 -13 -24 0 -30 6 -17 18 11
11 30 8 36 -5z m-283 -53 c0 -12 -19 -12 -23 0 -4 9 -1 12 9 8 7 -3 14 -7 14
-8z m108 -41 c-15 -16 -31 -23 -38 -19 -9 6 -9 10 1 16 9 6 1 7 -21 4 -31 -5
-32 -4 -11 5 13 6 32 8 42 5 9 -3 20 -1 24 5 3 5 11 10 18 10 6 0 0 -12 -15
-26z m-58 -19 c0 -11 -31 -11 -39 -1 -9 10 -6 12 14 8 14 -2 25 -6 25 -7z"/>
<path d="M260 356 c-34 -7 -50 -15 -42 -19 6 -5 12 -17 12 -27 0 -25 43 -54
68 -46 28 9 55 43 48 61 -8 21 -6 31 6 27 5 -1 7 2 3 8 -7 12 -23 11 -95 -4z"/>
</g>
</svg>
